# This file uses centimeters as units for non-parametric coordinates.

mtllib prism.mtl
g default
v -1.020818 3.843875 0.570225
v 0.222729 3.846474 -0.452531
v -1.117589 3.846751 0.147175
v -0.066595 5.562139 -0.320124
v -0.483302 3.845310 -0.629461
v -0.359039 3.846474 1.106009
v 0.588482 3.846474 -0.111613
v -0.902585 4.221218 0.703362
v -0.468762 4.045516 -0.645060
v 0.441337 4.048951 0.247330
v -0.933481 4.551435 0.560283
v -0.642167 4.424158 0.242739
v -0.962336 4.313161 -0.056332
v -1.096211 4.644928 0.222282
v -0.686772 4.842667 0.844565
v -0.396407 4.885367 0.738075
v -0.466057 4.858688 0.081212
v -0.523415 4.702348 -0.791645
v 0.272398 3.846474 0.960810
v 0.626772 4.383463 0.275315
v 0.424611 4.698160 0.755958
v -0.504420 5.166029 -0.526816
v -0.526966 4.209308 0.351777
v -0.385200 4.209308 0.347862
v -0.394735 4.185546 0.209913
v -0.528167 4.185546 0.214603
v -0.521731 4.282808 0.266578
v -0.053104 4.017343 0.860232
v -0.573445 4.939993 0.649221
v -0.409456 4.885681 0.902880
v -0.117802 4.045516 -0.317930
v -0.130752 4.088097 -0.073300
v 0.052673 4.170355 -0.232241
v 0.065135 3.975433 -0.283457
v -0.811381 4.088097 -0.049381
v -0.817881 4.048951 -0.270509
v -0.942353 4.188881 -0.101330
v -0.172455 4.702348 -0.464514
v -0.137702 4.737477 -0.271062
v -0.818331 4.737477 -0.247143
v -0.824831 4.698331 -0.468271
v -0.392559 5.245058 -0.260877
v -0.575391 5.205175 -0.441467
v 0.605995 3.846474 0.386735
v 0.002599 4.143405 0.624266
v 0.714959 4.279637 0.453621
v 0.652176 4.180985 0.780296
v 0.330412 4.492863 0.593263
v 0.306662 4.387607 0.847888
v 0.606100 4.587238 0.925123
v 0.676833 4.618828 0.529808
v 0.299485 5.575111 0.554491
v -0.435612 5.580132 0.075775
v -0.100297 5.584520 0.568734
v 0.713760 5.554911 0.110037
v 0.031013 6.144404 -0.039840
v 0.189057 6.146946 0.337747
v -0.128298 6.152172 0.131077
v 0.016463 6.031756 0.343896
v 0.367907 6.387981 0.145868
vt 0.325100 0.031400
vt 0.417800 0.053200
vt 0.381100 0.330900
vt 0.293000 0.321200
vt 0.157400 0.543800
vt 0.275600 0.526400
vt 0.291900 0.658100
vt 0.218900 0.672100
vt 0.473100 0.876400
vt 0.497200 0.760500
vt 0.558900 0.669800
vt 0.592000 0.697400
vt 0.849500 0.750500
vt 0.791600 0.905800
vt 0.671000 0.713300
vt 0.723200 0.681000
vt 0.361100 0.475600
vt 0.355300 0.510500
vt 0.299700 0.473300
vt 0.712200 0.259200
vt 0.670700 0.306700
vt 0.644100 0.240500
vt 0.829200 0.529200
vt 0.913200 0.579200
vt 0.747400 0.622200
vt 0.805000 0.544400
vt 0.726300 0.168900
vt 0.766000 0.218300
vt 0.843600 0.191400
vt 0.821000 0.148900
vt 0.930800 0.787800
vt 0.997900 0.723500
vt 0.742600 0.449600
vt 0.762700 0.440100
vt 0.830100 0.492300
vt 0.727600 0.484200
vt 0.025700 0.628200
vt 0.103400 0.568500
vt 0.183600 0.690900
vt 0.111900 0.773800
vt 0.026800 0.002700
vt 0.165400 0.010100
vt 0.148600 0.331600
vt 0.017100 0.349400
vt 0.121300 0.884200
vt 0.063200 0.754900
vt 0.146300 0.805300
vt 0.618700 0.449200
vt 0.731600 0.424300
vt 0.641600 0.511100
vt 0.713600 0.588600
vt 0.647800 0.524700
vt 0.784600 0.548300
vt 0.824200 0.677400
vt 0.870200 0.608500
vt 0.303100 0.763500
vt 0.240400 0.805100
vt 0.399300 0.671100
vt 0.481800 0.739100
vt 0.378200 0.813500
vt 0.329700 0.772400
vt 0.785600 0.342400
vt 0.870100 0.283700
vt 0.453400 0.539000
vt 0.539500 0.582600
vt 0.568700 0.596700
vt 0.402400 0.526400
vt 0.358800 0.657000
vt 0.642300 0.006300
vt 0.716400 0.163600
vt 0.634600 0.201800
vt 0.688500 0.031800
vt 0.793000 0.080100
vt 0.642400 0.902600
vt 0.547500 0.862300
vt 0.599600 0.696200
vt 0.636300 0.720500
vt 0.788400 0.400900
vt 0.848900 0.455700
vt 0.881900 0.341700
vt 0.567800 0.251400
vt 0.617000 0.217400
vt 0.080300 0.577600
vt 0.029700 0.606300
vt 0.032800 0.520100
vt 0.573200 0.160700
vt 0.088900 0.511300
vt 0.140200 0.533100
vt 0.076100 0.533100
vt 0.700100 0.912500
vt 0.324000 0.959800
vt 0.172600 0.972100
vt 0.166100 0.891900
vt 0.355300 0.830600
vt 0.164200 0.830600
vt 0.755000 0.399600
vt 0.777600 0.417700
vt 0.613200 0.285200
vt 0.573700 0.317400
vt 0.624800 0.590900
vt 0.581000 0.560600
vt 0.633000 0.542700
vt 0.663600 0.573200
vt 0.455500 0.784500
vt 0.419700 0.794200
vt 0.713700 0.599900
vt 0.338000 0.993900
vt 0.381900 0.841100
vt 0.481000 0.882700
vt 0.032600 0.846800
vt 0.758500 0.300600
vt 0.557900 0.058700
vt 0.570700 0.395200
vt 0.485400 0.357000
vt 0.577500 0.419800
vt 0.182100 0.529500
vt 0.088300 0.502300
vt 0.459800 0.522100
vt 0.434300 0.471900
vt 0.295100 0.471500
vt 0.572700 0.539000
vt 0.538700 0.575800
vt 0.487100 0.543500
vt 0.494400 0.499600
vt 0.547500 0.444800
vt 0.357600 0.470200
vt 0.313400 0.524100
vn -0.735969 -0.083296 -0.671872
vn -0.735969 -0.083296 -0.671872
vn -0.735969 -0.083296 -0.671872
vn -0.735969 -0.083296 -0.671872
vn 0.677997 -0.105899 -0.727397
vn 0.677997 -0.105899 -0.727397
vn 0.677997 -0.105899 -0.727397
vn 0.677997 -0.105899 -0.727397
vn -0.756396 -0.104599 -0.645697
vn -0.756396 -0.104599 -0.645697
vn -0.756396 -0.104599 -0.645697
vn -0.756396 -0.104599 -0.645697
vn -0.463603 0.079100 0.882505
vn -0.463603 0.079100 0.882505
vn -0.463603 0.079100 0.882505
vn -0.463603 0.079100 0.882505
vn -0.150404 0.988528 -0.013800
vn -0.150404 0.988528 -0.013800
vn -0.150404 0.988528 -0.013800
vn 0.919380 0.181696 -0.348893
vn 0.919380 0.181696 -0.348893
vn 0.919380 0.181696 -0.348893
vn -0.861288 0.066899 -0.503693
vn -0.861288 0.066899 -0.503693
vn -0.861288 0.066899 -0.503693
vn -0.861288 0.066899 -0.503693
vn 0.682102 -0.173801 -0.710303
vn 0.682102 -0.173801 -0.710303
vn 0.682102 -0.173801 -0.710303
vn 0.682102 -0.173801 -0.710303
vn -0.950485 0.220596 0.218897
vn -0.950485 0.220596 0.218897
vn -0.950485 0.220596 0.218897
vn -0.627177 -0.076897 0.775072
vn -0.627177 -0.076897 0.775072
vn -0.627177 -0.076897 0.775072
vn 0.567888 0.358392 -0.740984
vn 0.567888 0.358392 -0.740984
vn 0.567888 0.358392 -0.740984
vn 0.567888 0.358392 -0.740984
vn 0.567888 0.358392 -0.740984
vn 0.567888 0.358392 -0.740984
vn 0.750080 0.199995 0.630383
vn 0.750080 0.199995 0.630383
vn 0.750080 0.199995 0.630383
vn 0.750080 0.199995 0.630383
vn 0.685579 -0.081897 0.723377
vn 0.685579 -0.081897 0.723377
vn 0.685579 -0.081897 0.723377
vn 0.685579 -0.081897 0.723377
vn 0.811159 0.531773 -0.243388
vn 0.811159 0.531773 -0.243388
vn 0.811159 0.531773 -0.243388
vn 0.672989 0.458892 0.580090
vn 0.672989 0.458892 0.580090
vn 0.672989 0.458892 0.580090
vn 0.672989 0.458892 0.580090
vn 0.672989 0.458892 0.580090
vn 0.158404 0.707319 0.688918
vn 0.158404 0.707319 0.688918
vn 0.158404 0.707319 0.688918
vn -0.922790 0.015400 0.384996
vn -0.922790 0.015400 0.384996
vn -0.922790 0.015400 0.384996
vn -0.922790 0.015400 0.384996
vn 0.689992 0.414195 -0.593593
vn 0.689992 0.414195 -0.593593
vn 0.689992 0.414195 -0.593593
vn 0.689992 0.414195 -0.593593
vn -0.652806 0.561305 0.508705
vn -0.652806 0.561305 0.508705
vn -0.652806 0.561305 0.508705
vn -0.652806 0.561305 0.508705
vn -0.560421 0.417416 -0.715327
vn -0.560421 0.417416 -0.715327
vn -0.560421 0.417416 -0.715327
vn -0.560421 0.417416 -0.715327
vn -0.630521 0.206407 0.748225
vn -0.630521 0.206407 0.748225
vn -0.630521 0.206407 0.748225
vn -0.630521 0.206407 0.748225
vn -0.630521 0.206407 0.748225
vn -0.715192 -0.209498 -0.666792
vn -0.715192 -0.209498 -0.666792
vn -0.715192 -0.209498 -0.666792
vn -0.715192 -0.209498 -0.666792
vn 0.568995 -0.218098 0.792892
vn 0.568995 -0.218098 0.792892
vn 0.568995 -0.218098 0.792892
vn 0.704804 -0.579204 0.409602
vn 0.704804 -0.579204 0.409602
vn 0.704804 -0.579204 0.409602
vn 0.553995 0.423096 -0.716993
vn 0.553995 0.423096 -0.716993
vn 0.553995 0.423096 -0.716993
vn 0.553995 0.423096 -0.716993
vn -0.185193 0.211992 0.959564
vn -0.185193 0.211992 0.959564
vn -0.185193 0.211992 0.959564
vn -0.366785 0.700071 -0.612674
vn -0.366785 0.700071 -0.612674
vn -0.366785 0.700071 -0.612674
vn -0.366785 0.700071 -0.612674
vn 0.413400 0.898801 0.145800
vn 0.413400 0.898801 0.145800
vn 0.413400 0.898801 0.145800
vn -0.411495 0.281996 0.866689
vn -0.411495 0.281996 0.866689
vn -0.411495 0.281996 0.866689
vn -0.411495 0.281996 0.866689
vn 0.740915 0.360707 0.566512
vn 0.740915 0.360707 0.566512
vn 0.740915 0.360707 0.566512
vn -0.668100 0.377500 -0.641200
vn -0.668100 0.377500 -0.641200
vn -0.668100 0.377500 -0.641200
vn -0.668100 0.377500 -0.641200
vn 0.120804 0.936532 -0.329111
vn 0.120804 0.936532 -0.329111
vn 0.120804 0.936532 -0.329111
vn 0.880986 0.386794 0.272496
vn 0.880986 0.386794 0.272496
vn 0.880986 0.386794 0.272496
vn 0.880986 0.386794 0.272496
vn 0.332195 0.873287 -0.356395
vn 0.332195 0.873287 -0.356395
vn 0.332195 0.873287 -0.356395
vn 0.332195 0.873287 -0.356395
vn 0.785221 0.203805 -0.584715
vn 0.785221 0.203805 -0.584715
vn 0.785221 0.203805 -0.584715
vn 0.301390 0.939170 -0.164695
vn 0.301390 0.939170 -0.164695
vn 0.301390 0.939170 -0.164695
vn 0.301390 0.939170 -0.164695
vn 0.301390 0.939170 -0.164695
vn 0.550200 0.185800 0.814100
vn 0.550200 0.185800 0.814100
vn 0.550200 0.185800 0.814100
vn -0.025599 0.375489 -0.926473
vn -0.025599 0.375489 -0.926473
vn -0.025599 0.375489 -0.926473
vn -0.735405 0.290702 -0.612104
vn -0.735405 0.290702 -0.612104
vn -0.735405 0.290702 -0.612104
vn -0.735405 0.290702 -0.612104
vn -0.235694 0.747880 -0.620583
vn -0.235694 0.747880 -0.620583
vn -0.235694 0.747880 -0.620583
vn -0.235694 0.747880 -0.620583
vn -0.096394 -0.552163 -0.828145
vn -0.096394 -0.552163 -0.828145
vn -0.096394 -0.552163 -0.828145
vn 0.997935 0.032501 -0.055402
vn 0.997935 0.032501 -0.055402
vn 0.997935 0.032501 -0.055402
vn 0.997935 0.032501 -0.055402
vn -0.999558 -0.001700 0.029699
vn -0.999558 -0.001700 0.029699
vn -0.999558 -0.001700 0.029699
vn -0.999558 -0.001700 0.029699
vn 0.866593 0.439897 -0.235598
vn 0.866593 0.439897 -0.235598
vn 0.866593 0.439897 -0.235598
vn -0.894901 0.443201 -0.052200
vn -0.894901 0.443201 -0.052200
vn -0.894901 0.443201 -0.052200
vn 0.164902 0.730407 -0.662807
vn 0.164902 0.730407 -0.662807
vn 0.164902 0.730407 -0.662807
vn -0.925964 0.371585 0.067197
vn -0.925964 0.371585 0.067197
vn -0.925964 0.371585 0.067197
vn -0.700913 0.682213 0.208104
vn -0.700913 0.682213 0.208104
vn -0.700913 0.682213 0.208104
vn -0.700913 0.682213 0.208104
vn 0.960242 -0.258011 0.106605
vn 0.960242 -0.258011 0.106605
vn 0.960242 -0.258011 0.106605
vn 0.980098 0.054100 0.191000
vn 0.980098 0.054100 0.191000
vn 0.980098 0.054100 0.191000
vn 0.980098 0.054100 0.191000
vn 0.784768 0.619175 -0.027599
vn 0.784768 0.619175 -0.027599
vn 0.784768 0.619175 -0.027599
vn 0.013900 0.932467 -0.360987
vn 0.013900 0.932467 -0.360987
vn 0.013900 0.932467 -0.360987
vn 0.289299 0.939797 -0.181899
vn 0.289299 0.939797 -0.181899
vn 0.289299 0.939797 -0.181899
vn 0.036500 0.041100 0.998488
vn 0.036500 0.041100 0.998488
vn 0.036500 0.041100 0.998488
vn -0.125497 0.932780 0.337893
vn -0.125497 0.932780 0.337893
vn -0.125497 0.932780 0.337893
vn 0.643782 0.299692 0.704081
vn 0.643782 0.299692 0.704081
vn 0.643782 0.299692 0.704081
vn 0.643782 0.299692 0.704081
vn -0.040800 0.397498 0.916696
vn -0.040800 0.397498 0.916696
vn -0.040800 0.397498 0.916696
vn -0.040800 0.397498 0.916696
vn 0.421183 0.267389 -0.866665
vn 0.421183 0.267389 -0.866665
vn 0.421183 0.267389 -0.866665
vn 0.421183 0.267389 -0.866665
vn -0.777980 0.002600 0.628284
vn -0.777980 0.002600 0.628284
vn -0.777980 0.002600 0.628284
vn -0.777980 0.002600 0.628284
vn 0.474403 -0.165001 -0.864706
vn 0.474403 -0.165001 -0.864706
vn 0.474403 -0.165001 -0.864706
vn 0.474403 -0.165001 -0.864706
vn 0.340679 0.898546 0.276683
vn 0.340679 0.898546 0.276683
vn 0.340679 0.898546 0.276683
vn -0.536194 0.815191 0.218998
vn -0.536194 0.815191 0.218998
vn -0.536194 0.815191 0.218998
vn -0.657511 0.703212 0.270505
vn -0.657511 0.703212 0.270505
vn -0.657511 0.703212 0.270505
vn -0.656525 0.413716 -0.630724
vn -0.656525 0.413716 -0.630724
vn -0.656525 0.413716 -0.630724
vn -0.656525 0.413716 -0.630724
vn -0.727701 0.395901 0.560101
vn -0.727701 0.395901 0.560101
vn -0.727701 0.395901 0.560101
vn -0.727701 0.395901 0.560101
vn 0.040099 0.884880 0.464090
vn 0.040099 0.884880 0.464090
vn 0.040099 0.884880 0.464090
vn 0.677997 -0.105899 -0.727397
vn 0.677997 -0.105899 -0.727397
vn 0.677997 -0.105899 -0.727397
vn 0.390109 0.870420 -0.300307
vn 0.390109 0.870420 -0.300307
vn 0.390109 0.870420 -0.300307
vn -0.658576 0.744073 -0.112396
vn -0.658576 0.744073 -0.112396
vn -0.658576 0.744073 -0.112396
s off
g uploads_files_742881_LargeCrystalCluster:Mesh
usemtl initialShadingGroup
f 32/1/1 25/2/2 53/3/3 4/4/4
f 31/5/5 9/6/6 18/7/7 38/8/8
f 3/9/9 36/10/10 9/11/11 5/12/12
f 8/13/13 6/14/14 30/15/15 15/16/16
f 30/17/17 16/18/18 15/19/19
f 46/20/20 20/21/21 51/22/22
f 37/23/23 3/24/24 14/25/25 13/26/26
f 44/27/27 10/28/28 20/29/29 46/30/30
f 1/31/31 8/13/32 3/32/33
f 8/13/34 1/31/35 6/14/36
f 27/33/37 26/34/38 35/35/39 37/23/40 13/26/41 12/36/42
f 25/37/43 32/38/44 39/39/45 17/40/46
f 45/41/47 10/42/48 55/43/49 52/44/50
f 11/45/51 13/46/52 14/47/53
f 8/48/54 23/49/55 27/33/56 12/36/57 11/50/58
f 28/51/59 6/52/60 19/53/61
f 3/32/62 8/13/63 11/54/64 14/55/65
f 38/8/66 18/7/67 22/56/68 42/57/69
f 40/58/70 17/59/71 42/60/72 43/61/73
f 10/28/74 45/62/75 48/63/76 20/29/77
f 35/64/78 26/65/79 25/66/80 17/59/81 40/58/82
f 9/6/83 36/67/84 41/68/85 18/7/86
f 19/69/87 47/70/88 50/71/89
f 19/72/90 44/27/91 47/73/92
f 45/74/93 24/75/94 29/76/95 16/77/96
f 28/78/97 19/79/98 49/80/99
f 20/21/100 48/81/101 21/82/102 51/22/103
f 21/83/104 50/84/105 51/85/106
f 21/82/107 49/86/108 19/69/109 50/71/110
f 17/40/111 39/39/112 42/57/113
f 18/7/114 41/68/115 43/61/116 22/56/117
f 43/87/118 42/88/119 22/89/120
f 28/90/121 45/74/122 16/77/123 30/15/124
f 7/91/125 2/92/126 34/93/127 10/94/128
f 34/93/129 33/95/130 10/94/131
f 23/49/132 24/96/133 25/97/134 26/34/135 27/33/136
f 28/90/137 30/15/138 6/14/139
f 23/49/140 29/98/141 24/96/142
f 23/49/143 8/48/144 15/99/145 29/98/146
f 31/100/147 32/101/148 33/102/149 34/103/150
f 35/104/151 3/9/152 37/105/153
f 39/39/154 32/38/155 31/5/156 38/8/157
f 41/68/158 36/67/159 35/64/160 40/58/161
f 38/8/162 42/57/163 39/39/164
f 43/61/165 41/68/166 40/58/167
f 31/100/168 2/106/169 5/12/170
f 48/81/171 49/86/172 21/82/173
f 48/63/174 45/62/175 28/78/176 49/80/177
f 47/73/178 44/27/179 46/30/180
f 50/71/181 47/70/182 46/20/183 51/22/184
f 7/107/185 10/108/186 44/109/187
f 11/45/188 12/110/189 13/46/190
f 24/96/191 45/111/192 25/97/193
f 45/112/194 52/113/195 54/114/196
f 33/102/197 32/101/198 10/115/199
f 52/44/200 55/43/201 60/116/202 57/117/203
f 54/114/204 52/113/205 57/118/206 59/119/207
f 55/43/208 4/4/209 56/120/210 60/116/211
f 25/2/212 45/112/213 54/114/214 53/3/215
f 10/42/216 32/1/217 4/4/218 55/43/219
f 56/121/220 58/122/221 59/123/222
f 59/123/223 57/124/224 56/121/225
f 57/124/226 60/125/227 56/121/228
f 4/4/229 53/3/230 58/126/231 56/120/232
f 53/3/233 54/114/234 59/119/235 58/126/236
f 29/127/237 15/19/238 16/18/239
f 5/12/240 9/11/241 31/100/242
f 31/100/243 34/103/244 2/106/245
f 35/104/246 36/10/247 3/9/248
